<?xml version="1.0" encoding="utf-8"?>
<!-- Generator: Adobe Illustrator 25.1.0, SVG Export Plug-In . SVG Version: 6.00 Build 0)  -->
<svg version="1.1" id="Layer_1" xmlns="http://www.w3.org/2000/svg" xmlns:xlink="http://www.w3.org/1999/xlink" x="0px" y="0px"
	 viewBox="0 0 294.7 78.5" style="enable-background:new 0 0 294.7 78.5;" xml:space="preserve">
<style type="text/css">
	.st0{fill:#333333;}
</style>
<g>
	<path d="M21.8,36.8c0,21.6,0,33.4,0.2,35.1l-4.4,1.7c0.2-8,0.2-18.9,0.2-32.5c-3.1,3.6-7.3,7.3-12.6,10.9l-0.5-1
		c4.1-3.6,7.8-7.8,11.4-12.6c3.4-4.6,6.5-9.7,8.7-15h-9.7c-2.4,0-4.8,0.2-7,1l-2.7-2.7h19.1l2.4-2.9l5.1,4.1l-2.7,1.5
		c-2.4,3.6-4.6,7.5-7,11.1c3.9,1.5,6.5,2.9,8,4.1s1.9,2.4,1.9,3.4c0,0.7-0.2,1.7-0.7,2.7s-1,1.7-1.2,1.7c-0.7,0-1.5-1-2.4-2.9
		C26.4,41.7,24.5,39.2,21.8,36.8z M15.3,7l1-0.7c3.1,1.9,5.1,3.6,6.1,4.8s1.5,2.2,1.5,3.1c0,1.2-0.5,2.2-1.2,3.1
		c-1,1-1.5,1.5-1.7,1.5c-0.7,0-1.5-1-1.7-3.1C18.4,12.8,17,9.9,15.3,7z M36.1,53.5c0.2-3.6,0.2-9.7,0.2-18.2s0-14.5-0.2-18.4
		l4.1,2.7h10.2c0-5.3,0-10.2-0.2-15l6.1,2.7l-2,1.7v10.4h10.2l1.7-2.7l4.8,3.4l-2,1.7c0,15.3,0,24.7,0.2,28.6l-4.1,1.7V48H54.3
		c0,11.4,0,19.4,0.2,24l-4.4,1.9c0.2-9.4,0.2-17.9,0.2-25.7H40.2v3.4L36.1,53.5z M40.2,21.3v11.4h10.2V21.3H40.2z M40.2,34.4v12.1
		h10.2V34.4H40.2z M54.3,21.3v11.4h10.9V21.3H54.3z M54.3,34.4v12.1h10.9V34.4H54.3z"/>
</g>
<g>
	<path d="M114.35,40.46h-5.71l-6.4-9.69l-3.43,3.75v5.94h-4.63V17.92h4.63v10.73l9.17-10.73H114l-8.57,9.36L114.35,40.46z"/>
	<path d="M127.71,23.82h4.16v16.63h-4.16v-2.03c-1.1,1.61-2.86,2.41-5.27,2.41c-2.35,0-4.21-0.83-5.59-2.48s-2.06-3.72-2.06-6.22
		s0.69-4.57,2.06-6.22c1.38-1.65,3.24-2.48,5.59-2.48c2.41,0,4.17,0.8,5.27,2.41L127.71,23.82L127.71,23.82z M126.36,35.54
		c0.75-0.89,1.13-2.02,1.13-3.4c0-1.38-0.38-2.51-1.13-3.4s-1.74-1.33-2.97-1.33s-2.22,0.44-2.97,1.33s-1.13,2.02-1.13,3.4
		c0,1.38,0.38,2.51,1.13,3.4c0.75,0.89,1.74,1.33,2.97,1.33C124.62,36.87,125.61,36.42,126.36,35.54z"/>
	<path d="M150.91,31v9.46h-4.51v-9.87c0-2.18-0.89-3.27-2.67-3.27c-1.04,0-1.84,0.32-2.4,0.95c-0.56,0.63-0.84,1.51-0.84,2.63v9.55
		H136V23.82h4.16v2.03c0.87-1.61,2.46-2.41,4.79-2.41c2.2,0,3.81,0.78,4.82,2.35c1.42-1.57,3.26-2.35,5.52-2.35
		c1.95,0,3.44,0.6,4.47,1.81c1.04,1.21,1.55,2.81,1.55,4.82v10.38h-4.51v-9.87c0-2.18-0.89-3.27-2.67-3.27
		c-1.06,0-1.86,0.32-2.41,0.97C151.19,28.93,150.91,29.83,150.91,31z"/>
	<path d="M169.51,20.9c-0.51,0.51-1.16,0.76-1.97,0.76c-0.8,0-1.46-0.25-1.97-0.76s-0.76-1.15-0.76-1.94c0-0.78,0.25-1.43,0.76-1.95
		s1.16-0.78,1.97-0.78c0.8,0,1.46,0.26,1.97,0.78s0.76,1.17,0.76,1.95C170.27,19.75,170.02,20.4,169.51,20.9z M165.29,40.46V23.82
		h4.51v16.63h-4.51V40.46z"/>
	<path d="M186.75,17.92l6.6,8.73l6.6-8.73h4.25v22.54h-4.44V25.09l-6.35,8.16h-0.13l-6.35-8.16v15.36h-4.44V17.92H186.75z"/>
	<path d="M222.65,38.31c-1.61,1.68-3.71,2.52-6.32,2.52s-4.71-0.84-6.32-2.52s-2.41-3.74-2.41-6.17s0.8-4.49,2.41-6.17
		s3.71-2.52,6.32-2.52s4.71,0.84,6.32,2.52s2.41,3.74,2.41,6.17S224.25,36.63,222.65,38.31z M213.3,28.68
		c-0.79,0.85-1.19,2-1.19,3.46s0.4,2.61,1.19,3.46c0.79,0.85,1.8,1.27,3.03,1.27s2.24-0.42,3.03-1.27c0.79-0.85,1.19-2,1.19-3.46
		s-0.4-2.61-1.19-3.46c-0.79-0.85-1.8-1.27-3.03-1.27S214.09,27.83,213.3,28.68z"/>
	<path d="M233.21,27.38v13.08h-4.51V27.38h-2.25v-3.56h2.25V19.7h4.51v4.13h2.44v3.56h-2.44V27.38z"/>
	<path d="M242.26,20.9c-0.51,0.51-1.16,0.76-1.97,0.76c-0.8,0-1.46-0.25-1.97-0.76s-0.76-1.15-0.76-1.94c0-0.78,0.25-1.43,0.76-1.95
		s1.16-0.78,1.97-0.78c0.8,0,1.46,0.26,1.97,0.78s0.76,1.17,0.76,1.95C243.02,19.75,242.77,20.4,242.26,20.9z M238.04,40.46V23.82
		h4.51v16.63h-4.51V40.46z"/>
	<path d="M260.67,38.31c-1.61,1.68-3.71,2.52-6.32,2.52s-4.71-0.84-6.32-2.52s-2.41-3.74-2.41-6.17s0.8-4.49,2.41-6.17
		s3.71-2.52,6.32-2.52c2.61,0,4.71,0.84,6.32,2.52c1.61,1.68,2.41,3.74,2.41,6.17S262.28,36.63,260.67,38.31z M251.32,28.68
		c-0.79,0.85-1.19,2-1.19,3.46s0.4,2.61,1.19,3.46c0.79,0.85,1.8,1.27,3.03,1.27s2.24-0.42,3.03-1.27c0.79-0.85,1.19-2,1.19-3.46
		s-0.4-2.61-1.19-3.46c-0.79-0.85-1.8-1.27-3.03-1.27C253.12,27.41,252.12,27.83,251.32,28.68z"/>
	<path d="M270.32,23.82v2.03c0.87-1.61,2.52-2.41,4.95-2.41c1.97,0,3.48,0.6,4.54,1.79c1.06,1.2,1.59,2.81,1.59,4.84v10.38h-4.51
		v-9.87c0-2.18-0.94-3.27-2.83-3.27c-1.08,0-1.92,0.32-2.51,0.97s-0.89,1.53-0.89,2.65v9.52h-4.51V23.82H270.32z"/>
</g>
<g>
	<path class="st0" d="M95.55,57.96c-0.8-0.87-1.21-1.97-1.21-3.31s0.4-2.43,1.21-3.31c0.8-0.87,1.86-1.3,3.17-1.3
		c0.98,0,1.82,0.25,2.55,0.75c0.72,0.49,1.22,1.18,1.5,2.04l-0.88,0.3c-0.21-0.69-0.6-1.23-1.16-1.63c-0.56-0.4-1.23-0.6-2.01-0.6
		c-1.03,0-1.86,0.34-2.48,1.03c-0.63,0.69-0.94,1.6-0.94,2.71s0.31,2.02,0.94,2.72c0.63,0.69,1.46,1.03,2.48,1.03
		c0.77,0,1.43-0.2,2.01-0.6c0.56-0.4,0.95-0.94,1.16-1.63l0.88,0.3c-0.29,0.86-0.78,1.55-1.5,2.04c-0.72,0.49-1.57,0.75-2.55,0.75
		C97.4,59.27,96.35,58.83,95.55,57.96z"/>
	<path class="st0" d="M106.88,53.35c-1.03,0-1.63,0.42-1.79,1.26l-0.84-0.17c0.11-0.56,0.39-1.01,0.83-1.34
		c0.44-0.33,1.04-0.49,1.84-0.49c0.88,0,1.54,0.22,1.99,0.64c0.44,0.42,0.67,1.01,0.67,1.73v2.78c0,0.4,0.18,0.61,0.54,0.61
		l0.23-0.02v0.73c-0.08,0.02-0.22,0.03-0.4,0.03c-0.3,0-0.56-0.09-0.78-0.28c-0.22-0.18-0.36-0.42-0.41-0.73
		c-0.24,0.36-0.57,0.63-1.01,0.84c-0.44,0.2-0.91,0.3-1.42,0.3c-0.73,0-1.29-0.17-1.65-0.51c-0.38-0.33-0.56-0.8-0.56-1.39
		c0-1.07,0.79-1.7,2.39-1.92l2.23-0.3v-0.17C108.68,53.88,108.08,53.35,106.88,53.35z M108.68,55.84l-2.1,0.28
		c-0.59,0.07-1,0.22-1.25,0.41c-0.25,0.21-0.38,0.47-0.38,0.8c0,0.41,0.14,0.71,0.42,0.9s0.63,0.26,1.04,0.26
		c0.7,0,1.26-0.2,1.66-0.59c0.4-0.39,0.61-0.84,0.61-1.33v-0.73H108.68z"/>
	<path class="st0" d="M114.82,52.69v0.84c-0.1-0.01-0.21-0.01-0.31-0.01c-0.56,0-1.02,0.17-1.37,0.51
		c-0.34,0.33-0.53,0.83-0.53,1.46v3.6h-0.88v-6.34h0.85v0.99c0.15-0.28,0.39-0.52,0.73-0.72c0.34-0.21,0.77-0.32,1.3-0.32H114.82z"
		/>
	<path class="st0" d="M120.5,57.11l0.77,0.33c-0.23,0.54-0.6,0.98-1.08,1.3c-0.48,0.32-1.06,0.48-1.71,0.48
		c-0.96,0-1.72-0.32-2.28-0.96c-0.56-0.64-0.84-1.43-0.84-2.36c0-0.91,0.29-1.7,0.86-2.34c0.57-0.64,1.33-0.98,2.25-0.98
		c0.92,0,1.66,0.31,2.22,0.93s0.84,1.39,0.84,2.31l-0.01,0.33h-5.27c0.05,0.67,0.26,1.21,0.68,1.63c0.4,0.42,0.93,0.63,1.58,0.63
		c0.47,0,0.88-0.11,1.23-0.36C120.07,57.81,120.32,57.51,120.5,57.11z M118.47,53.39c-0.6,0-1.09,0.2-1.49,0.57
		c-0.4,0.39-0.63,0.87-0.71,1.48h4.37c-0.06-0.62-0.28-1.12-0.67-1.49C119.58,53.57,119.09,53.39,118.47,53.39z"/>
	<path class="st0" d="M123.49,52.74v-1.04c0-0.64,0.17-1.14,0.51-1.46c0.34-0.33,0.79-0.49,1.37-0.49l0.42,0.02v0.81
		c-0.08-0.01-0.2-0.02-0.34-0.02c-0.36,0-0.62,0.09-0.8,0.26c-0.18,0.17-0.26,0.46-0.26,0.85v1.08h1.43v0.73h-1.43v5.59h-0.88v-5.59
		h-1.23v-0.75H123.49z"/>
	<path class="st0" d="M131.4,56.49v-3.75h0.88v6.34h-0.85v-0.92c-0.14,0.26-0.38,0.51-0.72,0.73c-0.34,0.23-0.79,0.33-1.33,0.33
		c-0.77,0-1.35-0.22-1.76-0.67c-0.4-0.45-0.61-1.03-0.61-1.77v-4.06h0.88v3.87c0,1.23,0.54,1.85,1.63,1.85
		c0.54,0,0.99-0.17,1.34-0.51C131.23,57.61,131.4,57.12,131.4,56.49z"/>
	<path class="st0" d="M135.35,59.07h-0.88v-9.34h0.88V59.07z"/>
	<path class="st0" d="M138.41,59.07h-0.88v-9.34h0.88V59.07z"/>
	<path class="st0" d="M140.53,60.99c0.34,0,0.64-0.09,0.9-0.28c0.24-0.18,0.47-0.51,0.67-0.98l0.28-0.67l-2.65-6.35h0.96l2.15,5.28
		l2.19-5.28h0.93L142.88,60c-0.51,1.19-1.27,1.79-2.31,1.79l-0.25-0.01v-0.81C140.39,60.99,140.46,60.99,140.53,60.99z"/>
	<path class="st0" d="M153.1,58.43c0.49,0,0.92-0.13,1.27-0.39c0.36-0.26,0.6-0.61,0.75-1.06l0.83,0.32
		c-0.21,0.56-0.56,1.02-1.04,1.38c-0.49,0.36-1.09,0.54-1.79,0.54c-0.93,0-1.69-0.32-2.26-0.98c-0.57-0.65-0.86-1.43-0.86-2.33
		c0-0.91,0.29-1.69,0.86-2.34s1.33-0.99,2.26-0.99c0.7,0,1.31,0.18,1.79,0.54c0.49,0.36,0.84,0.81,1.04,1.38l-0.83,0.32
		c-0.15-0.45-0.4-0.8-0.75-1.06c-0.34-0.25-0.77-0.39-1.27-0.39c-0.67,0-1.21,0.24-1.61,0.71c-0.41,0.47-0.62,1.08-0.62,1.81
		c0,0.73,0.21,1.33,0.62,1.8S152.44,58.43,153.1,58.43z"/>
	<path class="st0" d="M160.68,52.69v0.84c-0.1-0.01-0.21-0.01-0.31-0.01c-0.56,0-1.02,0.17-1.37,0.51
		c-0.34,0.33-0.53,0.83-0.53,1.46v3.6h-0.88v-6.34h0.85v0.99c0.15-0.28,0.39-0.52,0.73-0.72c0.34-0.21,0.77-0.32,1.3-0.32H160.68z"
		/>
	<path class="st0" d="M164.2,53.35c-1.03,0-1.63,0.42-1.79,1.26l-0.84-0.17c0.11-0.56,0.39-1.01,0.83-1.34
		c0.44-0.33,1.04-0.49,1.84-0.49c0.88,0,1.54,0.22,1.97,0.64c0.44,0.42,0.67,1.01,0.67,1.73v2.78c0,0.4,0.18,0.61,0.54,0.61
		l0.23-0.02v0.73c-0.08,0.02-0.22,0.03-0.4,0.03c-0.3,0-0.56-0.09-0.78-0.28c-0.22-0.18-0.36-0.42-0.41-0.73
		c-0.24,0.36-0.57,0.63-1.01,0.84c-0.44,0.2-0.91,0.3-1.42,0.3c-0.73,0-1.29-0.17-1.65-0.51c-0.38-0.33-0.56-0.8-0.56-1.39
		c0-1.07,0.79-1.7,2.39-1.92l2.23-0.3v-0.17C165.99,53.88,165.4,53.35,164.2,53.35z M165.99,55.84l-2.1,0.29
		c-0.59,0.07-1,0.22-1.25,0.41c-0.25,0.21-0.38,0.47-0.38,0.8c0,0.41,0.14,0.71,0.42,0.9c0.29,0.18,0.63,0.26,1.04,0.26
		c0.71,0,1.26-0.2,1.66-0.59s0.61-0.84,0.61-1.33v-0.75H165.99z"/>
	<path class="st0" d="M169.33,52.74v-1.04c0-0.64,0.17-1.14,0.51-1.46c0.34-0.33,0.79-0.49,1.37-0.49l0.42,0.02v0.81
		c-0.08-0.01-0.2-0.02-0.34-0.02c-0.36,0-0.62,0.09-0.8,0.26c-0.18,0.17-0.26,0.46-0.26,0.85v1.08h1.43v0.73h-1.43v5.59h-0.88v-5.59
		h-1.23v-0.75H169.33z"/>
	<path class="st0" d="M175.5,58.25v0.79c-0.15,0.05-0.38,0.06-0.68,0.06c-1.09,0-1.64-0.57-1.64-1.73v-3.88h-1.21v-0.75h1.21v-1.8
		h0.88v1.8h1.46v0.75h-1.46v3.82c0,0.67,0.29,1,0.87,1L175.5,58.25z"/>
	<path class="st0" d="M181.47,57.11l0.77,0.33c-0.23,0.54-0.6,0.98-1.08,1.3c-0.48,0.32-1.04,0.48-1.7,0.48
		c-0.96,0-1.72-0.32-2.28-0.96c-0.56-0.64-0.84-1.43-0.84-2.36c0-0.91,0.29-1.7,0.86-2.34c0.57-0.64,1.33-0.98,2.25-0.98
		s1.66,0.31,2.22,0.93c0.55,0.62,0.84,1.39,0.84,2.31l-0.01,0.33h-5.27c0.05,0.67,0.26,1.21,0.68,1.63c0.4,0.42,0.93,0.63,1.58,0.63
		c0.47,0,0.88-0.11,1.23-0.36C181.05,57.81,181.3,57.51,181.47,57.11z M179.45,53.39c-0.6,0-1.1,0.2-1.49,0.57
		c-0.4,0.39-0.63,0.87-0.71,1.48h4.37c-0.06-0.62-0.28-1.12-0.67-1.49C180.56,53.57,180.05,53.39,179.45,53.39z"/>
	<path class="st0" d="M189.06,53.88v-4.14h0.88v9.34h-0.85v-1.17c-0.47,0.88-1.27,1.32-2.4,1.32c-0.93,0-1.66-0.32-2.19-0.96
		s-0.79-1.42-0.79-2.34c0-0.93,0.26-1.72,0.79-2.36c0.53-0.64,1.26-0.96,2.19-0.96C187.79,52.59,188.58,53.02,189.06,53.88z
		 M189.1,55.92c0-0.73-0.2-1.33-0.6-1.81s-0.94-0.71-1.63-0.71c-0.69,0-1.24,0.24-1.65,0.72c-0.41,0.48-0.62,1.08-0.62,1.8
		c0,0.71,0.21,1.31,0.62,1.79c0.41,0.48,0.96,0.72,1.65,0.72c0.69,0,1.23-0.24,1.63-0.72C188.9,57.22,189.1,56.63,189.1,55.92z"/>
	<path class="st0" d="M200.04,57.11l0.77,0.33c-0.23,0.54-0.6,0.98-1.08,1.3c-0.48,0.32-1.06,0.48-1.71,0.48
		c-0.96,0-1.72-0.32-2.28-0.96c-0.56-0.64-0.84-1.43-0.84-2.36c0-0.91,0.29-1.7,0.86-2.34c0.57-0.64,1.33-0.98,2.25-0.98
		s1.66,0.31,2.22,0.93c0.55,0.62,0.84,1.39,0.84,2.31l-0.01,0.33h-5.27c0.05,0.67,0.26,1.21,0.68,1.63c0.4,0.42,0.93,0.63,1.58,0.63
		c0.47,0,0.88-0.11,1.23-0.36C199.61,57.81,199.86,57.51,200.04,57.11z M198,53.39c-0.6,0-1.1,0.2-1.49,0.57
		c-0.4,0.39-0.63,0.87-0.71,1.48h4.37c-0.06-0.62-0.28-1.12-0.67-1.49C199.12,53.57,198.62,53.39,198,53.39z"/>
	<path class="st0" d="M203.03,52.74v-1.04c0-0.64,0.17-1.14,0.51-1.46c0.34-0.33,0.79-0.49,1.37-0.49l0.42,0.02v0.81
		c-0.08-0.01-0.2-0.02-0.34-0.02c-0.36,0-0.62,0.09-0.8,0.26c-0.18,0.17-0.26,0.46-0.26,0.85v1.08h1.43v0.73h-1.43v5.59h-0.88v-5.59
		h-1.23v-0.75H203.03z"/>
	<path class="st0" d="M206.91,52.74v-1.04c0-0.64,0.17-1.14,0.51-1.46c0.34-0.33,0.79-0.49,1.37-0.49l0.42,0.02v0.81
		c-0.08-0.01-0.2-0.02-0.34-0.02c-0.36,0-0.62,0.09-0.8,0.26c-0.18,0.17-0.26,0.46-0.26,0.85v1.08h1.43v0.73h-1.43v5.59h-0.88v-5.59
		h-1.23v-0.75H206.91z"/>
	<path class="st0" d="M215.03,57.11l0.77,0.33c-0.23,0.54-0.6,0.98-1.08,1.3c-0.48,0.32-1.06,0.48-1.71,0.48
		c-0.96,0-1.72-0.32-2.28-0.96c-0.56-0.64-0.84-1.43-0.84-2.36c0-0.91,0.29-1.7,0.86-2.34c0.57-0.64,1.33-0.98,2.25-0.98
		s1.66,0.31,2.22,0.93c0.55,0.62,0.84,1.39,0.84,2.31l-0.01,0.33h-5.27c0.05,0.67,0.26,1.21,0.68,1.63c0.4,0.42,0.93,0.63,1.58,0.63
		c0.47,0,0.88-0.11,1.23-0.36C214.6,57.81,214.86,57.51,215.03,57.11z M212.99,53.39c-0.6,0-1.1,0.2-1.49,0.57
		c-0.4,0.39-0.63,0.87-0.71,1.48h4.37c-0.06-0.62-0.28-1.12-0.67-1.49C214.11,53.57,213.61,53.39,212.99,53.39z"/>
	<path class="st0" d="M220.4,58.43c0.49,0,0.92-0.13,1.27-0.39c0.36-0.26,0.6-0.61,0.75-1.06l0.83,0.32
		c-0.21,0.56-0.56,1.02-1.04,1.38c-0.49,0.36-1.09,0.54-1.79,0.54c-0.93,0-1.69-0.32-2.26-0.98c-0.57-0.65-0.86-1.43-0.86-2.33
		c0-0.91,0.29-1.69,0.86-2.34c0.57-0.65,1.33-0.99,2.26-0.99c0.7,0,1.3,0.18,1.79,0.54c0.49,0.36,0.84,0.81,1.04,1.38l-0.83,0.32
		c-0.15-0.45-0.4-0.8-0.75-1.06c-0.34-0.25-0.77-0.39-1.27-0.39c-0.67,0-1.21,0.24-1.62,0.71s-0.62,1.08-0.62,1.81
		c0,0.73,0.21,1.33,0.62,1.8S219.73,58.43,220.4,58.43z"/>
	<path class="st0" d="M227.46,58.25v0.79c-0.15,0.05-0.38,0.06-0.68,0.06c-1.09,0-1.64-0.57-1.64-1.73v-3.88h-1.21v-0.75h1.21v-1.8
		h0.88v1.8h1.46v0.75h-1.46v3.82c0,0.67,0.29,1,0.87,1L227.46,58.25z"/>
	<path class="st0" d="M228.33,57.28l0.88-0.16c0.05,0.41,0.21,0.75,0.49,0.98c0.29,0.24,0.69,0.36,1.22,0.36
		c0.53,0,0.93-0.09,1.23-0.3c0.3-0.2,0.45-0.46,0.45-0.78c0-0.24-0.07-0.44-0.22-0.6c-0.15-0.15-0.33-0.25-0.57-0.31
		c-0.24-0.06-0.48-0.11-0.76-0.17c-0.26-0.06-0.54-0.13-0.81-0.18c-0.28-0.06-0.53-0.15-0.76-0.26c-0.23-0.11-0.41-0.29-0.56-0.53
		c-0.15-0.24-0.22-0.53-0.22-0.87c0-0.52,0.21-0.95,0.63-1.32c0.42-0.37,1-0.55,1.72-0.55c0.71,0,1.26,0.16,1.65,0.49
		c0.39,0.33,0.63,0.73,0.72,1.22l-0.85,0.29c-0.05-0.37-0.2-0.67-0.45-0.9c-0.25-0.23-0.63-0.34-1.11-0.34
		c-0.47,0-0.84,0.09-1.09,0.3c-0.25,0.2-0.38,0.45-0.38,0.75c0,0.26,0.09,0.48,0.29,0.63c0.2,0.16,0.44,0.26,0.71,0.33
		c0.29,0.07,0.6,0.14,0.93,0.22s0.65,0.15,0.95,0.22c0.3,0.07,0.54,0.24,0.72,0.51c0.18,0.28,0.29,0.62,0.29,1.04
		c0,0.52-0.22,0.95-0.65,1.32c-0.44,0.37-1.06,0.55-1.87,0.55c-0.81,0-1.43-0.18-1.85-0.54S228.4,57.86,228.33,57.28z"/>
</g>
</svg>
