<?xml version="1.0" encoding="utf-8"?>
<!-- Generator: Adobe Illustrator 25.1.0, SVG Export Plug-In . SVG Version: 6.00 Build 0)  -->
<svg version="1.1" id="Layer_1" xmlns="http://www.w3.org/2000/svg" xmlns:xlink="http://www.w3.org/1999/xlink" x="0px" y="0px"
	 viewBox="0 0 294.7 78.5" style="enable-background:new 0 0 294.7 78.5;" xml:space="preserve">
<style type="text/css">
	.st0{fill:#333333;}
</style>
<g>
	<path d="M21.8,36.8c0,21.6,0,33.4,0.2,35.1l-4.4,1.7c0.2-8,0.2-18.9,0.2-32.5c-3.1,3.6-7.3,7.3-12.6,10.9l-0.5-1
		c4.1-3.6,7.8-7.8,11.4-12.6c3.4-4.6,6.5-9.7,8.7-15h-9.7c-2.4,0-4.8,0.2-7,1l-2.7-2.7h19.1l2.4-2.9l5.1,4.1l-2.7,1.5
		c-2.4,3.6-4.6,7.5-7,11.1c3.9,1.5,6.5,2.9,8,4.1s1.9,2.4,1.9,3.4c0,0.7-0.2,1.7-0.7,2.7s-1,1.7-1.2,1.7c-0.7,0-1.5-1-2.4-2.9
		C26.4,41.7,24.5,39.2,21.8,36.8z M15.3,7l1-0.7c3.1,1.9,5.1,3.6,6.1,4.8s1.5,2.2,1.5,3.1c0,1.2-0.5,2.2-1.2,3.1
		c-1,1-1.5,1.5-1.7,1.5c-0.7,0-1.5-1-1.7-3.1C18.4,12.8,17,9.9,15.3,7z M36.1,53.5c0.2-3.6,0.2-9.7,0.2-18.2s0-14.5-0.2-18.4
		l4.1,2.7h10.2c0-5.3,0-10.2-0.2-15l6.1,2.7l-2,1.7v10.4h10.2l1.7-2.7l4.8,3.4l-2,1.7c0,15.3,0,24.7,0.2,28.6l-4.1,1.7V48H54.3
		c0,11.4,0,19.4,0.2,24l-4.4,1.9c0.2-9.4,0.2-17.9,0.2-25.7H40.2v3.4L36.1,53.5z M40.2,21.3v11.4h10.2V21.3H40.2z M40.2,34.4v12.1
		h10.2V34.4H40.2z M54.3,21.3v11.4h10.9V21.3H54.3z M54.3,34.4v12.1h10.9V34.4H54.3z"/>
</g>
<g>
	<path d="M115.1,42h-5.7l-6.3-9.6l-3.4,3.7v5.9h-4.6V19.7h4.6v10.6l9.1-10.6h6l-8.5,9.3L115.1,42z"/>
	<path d="M128.3,25.6h4.1v16.5h-4.1v-2c-1.1,1.6-2.8,2.4-5.2,2.4c-2.3,0-4.2-0.8-5.5-2.4c-1.4-1.6-2-3.7-2-6.2s0.7-4.5,2-6.2
		c1.4-1.6,3.2-2.4,5.5-2.4c2.4,0,4.1,0.8,5.2,2.4V25.6z M127,37.2c0.7-0.9,1.1-2,1.1-3.4c0-1.4-0.4-2.5-1.1-3.4
		c-0.7-0.9-1.7-1.3-2.9-1.3s-2.2,0.4-2.9,1.3c-0.7,0.9-1.1,2-1.1,3.4c0,1.4,0.4,2.5,1.1,3.4c0.7,0.9,1.7,1.3,2.9,1.3
		S126.2,38.1,127,37.2z"/>
	<path d="M151.3,32.7V42h-4.5v-9.8c0-2.2-0.9-3.2-2.6-3.2c-1,0-1.8,0.3-2.4,0.9c-0.6,0.6-0.8,1.5-0.8,2.6V42h-4.5V25.6h4.1v2
		c0.9-1.6,2.4-2.4,4.7-2.4c2.2,0,3.8,0.8,4.8,2.3c1.4-1.5,3.2-2.3,5.5-2.3c1.9,0,3.4,0.6,4.4,1.8c1,1.2,1.5,2.8,1.5,4.8V42h-4.5
		v-9.8c0-2.2-0.9-3.2-2.6-3.2c-1.1,0-1.8,0.3-2.4,1C151.6,30.6,151.3,31.5,151.3,32.7z"/>
	<path d="M169.7,22.7c-0.5,0.5-1.2,0.8-2,0.8c-0.8,0-1.4-0.3-2-0.8c-0.5-0.5-0.8-1.1-0.8-1.9c0-0.8,0.3-1.4,0.8-1.9s1.2-0.8,2-0.8
		c0.8,0,1.4,0.3,2,0.8s0.8,1.2,0.8,1.9C170.5,21.5,170.2,22.2,169.7,22.7z M165.6,42V25.6h4.5v16.5L165.6,42L165.6,42z"/>
	<path d="M186.8,19.7l6.5,8.6l6.5-8.6h4.2v22.3h-4.4V26.8l-6.3,8.1h-0.1l-6.3-8.1v15.2h-4.4V19.7H186.8z"/>
	<path d="M222.4,39.9c-1.6,1.7-3.7,2.5-6.3,2.5c-2.6,0-4.7-0.8-6.3-2.5c-1.6-1.7-2.4-3.7-2.4-6.1s0.8-4.4,2.4-6.1
		c1.6-1.7,3.7-2.5,6.3-2.5c2.6,0,4.7,0.8,6.3,2.5s2.4,3.7,2.4,6.1C224.8,36.2,224,38.3,222.4,39.9z M213.1,30.4
		c-0.8,0.8-1.2,2-1.2,3.4c0,1.4,0.4,2.6,1.2,3.4c0.8,0.8,1.8,1.3,3,1.3c1.2,0,2.2-0.4,3-1.3c0.8-0.8,1.2-2,1.2-3.4
		c0-1.4-0.4-2.6-1.2-3.4c-0.8-0.8-1.8-1.3-3-1.3C214.9,29.1,213.9,29.5,213.1,30.4z"/>
	<path d="M232.8,29.1v13h-4.5v-13h-2.2v-3.5h2.2v-4.1h4.5v4.1h2.4v3.5H232.8z"/>
	<path d="M241.8,22.7c-0.5,0.5-1.2,0.8-2,0.8c-0.8,0-1.4-0.3-2-0.8c-0.5-0.5-0.8-1.1-0.8-1.9c0-0.8,0.3-1.4,0.8-1.9
		c0.5-0.5,1.2-0.8,2-0.8c0.8,0,1.4,0.3,2,0.8s0.8,1.2,0.8,1.9C242.6,21.5,242.3,22.2,241.8,22.7z M237.6,42V25.6h4.5v16.5L237.6,42
		L237.6,42z"/>
	<path d="M260.1,39.9c-1.6,1.7-3.7,2.5-6.3,2.5c-2.6,0-4.7-0.8-6.3-2.5c-1.6-1.7-2.4-3.7-2.4-6.1s0.8-4.4,2.4-6.1
		c1.6-1.7,3.7-2.5,6.3-2.5c2.6,0,4.7,0.8,6.3,2.5c1.6,1.7,2.4,3.7,2.4,6.1C262.4,36.2,261.6,38.3,260.1,39.9z M250.8,30.4
		c-0.8,0.8-1.2,2-1.2,3.4c0,1.4,0.4,2.6,1.2,3.4c0.8,0.8,1.8,1.3,3,1.3c1.2,0,2.2-0.4,3-1.3s1.2-2,1.2-3.4c0-1.4-0.4-2.6-1.2-3.4
		c-0.8-0.8-1.8-1.3-3-1.3C252.6,29.1,251.6,29.5,250.8,30.4z"/>
	<path d="M269.6,25.6v2c0.9-1.6,2.5-2.4,4.9-2.4c2,0,3.4,0.6,4.5,1.8c1.1,1.2,1.6,2.8,1.6,4.8V42h-4.5v-9.8c0-2.2-0.9-3.2-2.8-3.2
		c-1.1,0-1.9,0.3-2.5,1c-0.6,0.6-0.9,1.5-0.9,2.6V42h-4.5V25.6H269.6z"/>
	<path class="st0" d="M94.8,58c-0.9-1-1.4-2.3-1.4-3.8c0-1.5,0.5-2.8,1.4-3.8c0.9-1,2.1-1.5,3.7-1.5c1.1,0,2.1,0.3,2.9,0.9
		c0.8,0.6,1.4,1.4,1.7,2.4l-1,0.3c-0.2-0.8-0.7-1.4-1.3-1.9c-0.6-0.5-1.4-0.7-2.3-0.7c-1.2,0-2.1,0.4-2.9,1.2
		c-0.7,0.8-1.1,1.8-1.1,3.1s0.4,2.3,1.1,3.1c0.7,0.8,1.7,1.2,2.9,1.2c0.9,0,1.7-0.2,2.3-0.7c0.6-0.5,1.1-1.1,1.3-1.9l1,0.3
		c-0.3,1-0.9,1.8-1.7,2.4c-0.8,0.6-1.8,0.9-2.9,0.9C97,59.5,95.8,59,94.8,58z"/>
	<path class="st0" d="M107.9,52.7c-1.2,0-1.9,0.5-2.1,1.5l-1-0.2c0.1-0.6,0.5-1.2,1-1.5s1.2-0.6,2.1-0.6c1,0,1.8,0.2,2.3,0.7
		c0.5,0.5,0.8,1.2,0.8,2v3.2c0,0.5,0.2,0.7,0.6,0.7l0.3,0v0.8c-0.1,0-0.3,0-0.5,0c-0.3,0-0.6-0.1-0.9-0.3s-0.4-0.5-0.5-0.8
		c-0.3,0.4-0.7,0.7-1.2,1c-0.5,0.2-1.1,0.3-1.6,0.3c-0.8,0-1.5-0.2-1.9-0.6s-0.6-0.9-0.6-1.6c0-1.2,0.9-2,2.8-2.2l2.6-0.3v-0.2
		C110,53.3,109.3,52.7,107.9,52.7z M110,55.5l-2.4,0.3c-0.7,0.1-1.2,0.2-1.4,0.5c-0.3,0.2-0.4,0.5-0.4,0.9c0,0.5,0.2,0.8,0.5,1
		c0.3,0.2,0.7,0.3,1.2,0.3c0.8,0,1.5-0.2,1.9-0.7c0.5-0.5,0.7-1,0.7-1.5L110,55.5L110,55.5z"/>
	<path class="st0" d="M117.1,51.9v1c-0.1,0-0.2,0-0.4,0c-0.6,0-1.2,0.2-1.6,0.6c-0.4,0.4-0.6,0.9-0.6,1.7v4.2h-1V52h1v1.1
		c0.2-0.3,0.5-0.6,0.8-0.8c0.4-0.2,0.9-0.4,1.5-0.4L117.1,51.9z"/>
	<path class="st0" d="M123.7,57l0.9,0.4c-0.3,0.6-0.7,1.1-1.2,1.5c-0.6,0.4-1.2,0.6-2,0.6c-1.1,0-2-0.4-2.6-1.1
		c-0.6-0.7-1-1.7-1-2.7c0-1.1,0.3-2,1-2.7s1.5-1.1,2.6-1.1c1.1,0,1.9,0.4,2.6,1.1c0.6,0.7,1,1.6,1,2.7l0,0.4h-6.1
		c0,0.8,0.3,1.4,0.8,1.9c0.5,0.5,1.1,0.7,1.8,0.7c0.5,0,1-0.1,1.4-0.4C123.2,57.9,123.5,57.5,123.7,57z M121.3,52.7
		c-0.7,0-1.3,0.2-1.7,0.7c-0.5,0.4-0.7,1-0.8,1.7h5c-0.1-0.7-0.3-1.3-0.8-1.7C122.6,52.9,122,52.7,121.3,52.7z"/>
	<path class="st0" d="M127.1,52v-1.2c0-0.8,0.2-1.3,0.6-1.7c0.4-0.4,0.9-0.6,1.6-0.6l0.5,0v0.9c-0.1,0-0.2,0-0.4,0
		c-0.4,0-0.7,0.1-0.9,0.3c-0.2,0.2-0.3,0.5-0.3,1V52h1.7v0.9h-1.7v6.5h-1v-6.5h-1.4V52C125.7,52,127.1,52,127.1,52z"/>
	<path class="st0" d="M136.2,56.3V52h1v7.3h-1v-1.1c-0.2,0.3-0.4,0.6-0.8,0.8c-0.4,0.3-0.9,0.4-1.5,0.4c-0.9,0-1.6-0.3-2-0.8
		s-0.7-1.2-0.7-2V52h1v4.5c0,1.4,0.6,2.1,1.9,2.1c0.6,0,1.1-0.2,1.5-0.6C136,57.6,136.2,57.1,136.2,56.3z"/>
	<path class="st0" d="M140.8,59.3h-1V48.5h1V59.3z"/>
	<path class="st0" d="M144.3,59.3h-1V48.5h1V59.3z"/>
	<path class="st0" d="M146.8,61.5c0.4,0,0.7-0.1,1-0.3c0.3-0.2,0.5-0.6,0.8-1.1l0.3-0.8l-3.1-7.3h1.1l2.5,6.1l2.5-6.1h1.1l-3.5,8.4
		c-0.6,1.4-1.5,2.1-2.7,2.1l-0.3,0v-0.9C146.6,61.5,146.7,61.5,146.8,61.5z"/>
	<path class="st0" d="M161.3,58.6c0.6,0,1.1-0.2,1.5-0.4c0.4-0.3,0.7-0.7,0.9-1.2l0.9,0.4c-0.2,0.6-0.6,1.2-1.2,1.6
		c-0.6,0.4-1.3,0.6-2.1,0.6c-1.1,0-1.9-0.4-2.6-1.1c-0.7-0.8-1-1.7-1-2.7s0.3-1.9,1-2.7c0.7-0.8,1.5-1.1,2.6-1.1
		c0.8,0,1.5,0.2,2.1,0.6c0.6,0.4,1,0.9,1.2,1.6l-0.9,0.4c-0.2-0.5-0.5-0.9-0.9-1.2c-0.4-0.3-0.9-0.5-1.5-0.5c-0.8,0-1.4,0.3-1.9,0.8
		c-0.5,0.5-0.7,1.2-0.7,2.1c0,0.8,0.2,1.5,0.7,2.1C159.9,58.3,160.5,58.6,161.3,58.6z"/>
	<path class="st0" d="M170,51.9v1c-0.1,0-0.2,0-0.4,0c-0.6,0-1.2,0.2-1.6,0.6c-0.4,0.4-0.6,0.9-0.6,1.7v4.2h-1V52h1v1.1
		c0.2-0.3,0.5-0.6,0.8-0.8c0.4-0.2,0.9-0.4,1.5-0.4L170,51.9z"/>
	<path class="st0" d="M174.1,52.7c-1.2,0-1.9,0.5-2.1,1.5l-1-0.2c0.1-0.6,0.5-1.2,1-1.5c0.5-0.4,1.2-0.6,2.1-0.6
		c1,0,1.8,0.2,2.3,0.7c0.5,0.5,0.8,1.2,0.8,2v3.2c0,0.5,0.2,0.7,0.6,0.7l0.3,0v0.8c-0.1,0-0.3,0-0.5,0c-0.3,0-0.6-0.1-0.9-0.3
		c-0.3-0.2-0.4-0.5-0.5-0.8c-0.3,0.4-0.7,0.7-1.2,1c-0.5,0.2-1.1,0.3-1.6,0.3c-0.8,0-1.5-0.2-1.9-0.6c-0.4-0.4-0.6-0.9-0.6-1.6
		c0-1.2,0.9-2,2.8-2.2l2.6-0.3v-0.2C176.2,53.3,175.5,52.7,174.1,52.7z M176.2,55.5l-2.4,0.3c-0.7,0.1-1.2,0.2-1.4,0.5
		c-0.3,0.2-0.4,0.5-0.4,0.9c0,0.5,0.2,0.8,0.5,1c0.3,0.2,0.7,0.3,1.2,0.3c0.8,0,1.5-0.2,1.9-0.7c0.5-0.5,0.7-1,0.7-1.5L176.2,55.5
		L176.2,55.5z"/>
	<path class="st0" d="M180,52v-1.2c0-0.8,0.2-1.3,0.6-1.7c0.4-0.4,0.9-0.6,1.6-0.6l0.5,0v0.9c-0.1,0-0.2,0-0.4,0
		c-0.4,0-0.7,0.1-0.9,0.3c-0.2,0.2-0.3,0.5-0.3,1V52h1.7v0.9h-1.7v6.5h-1v-6.5h-1.4V52C178.6,52,180,52,180,52z"/>
	<path class="st0" d="M187.2,58.3v0.9c-0.2,0-0.4,0.1-0.8,0.1c-1.3,0-1.9-0.7-1.9-2v-4.5h-1.4V52h1.4v-2.1h1V52h1.7v0.9h-1.7v4.4
		c0,0.8,0.3,1.2,1,1.2L187.2,58.3z"/>
	<path class="st0" d="M194.1,57l0.9,0.4c-0.3,0.6-0.7,1.1-1.2,1.5c-0.6,0.4-1.2,0.6-2,0.6c-1.1,0-2-0.4-2.6-1.1s-1-1.7-1-2.7
		c0-1.1,0.3-2,1-2.7c0.7-0.8,1.5-1.1,2.6-1.1c1.1,0,1.9,0.4,2.6,1.1c0.6,0.7,1,1.6,1,2.7l0,0.4h-6.1c0,0.8,0.3,1.4,0.8,1.9
		c0.5,0.5,1.1,0.7,1.8,0.7c0.5,0,1-0.1,1.4-0.4C193.6,57.9,193.9,57.5,194.1,57z M191.7,52.7c-0.7,0-1.3,0.2-1.7,0.7
		c-0.5,0.4-0.7,1-0.8,1.7h5c-0.1-0.7-0.3-1.3-0.8-1.7C193,52.9,192.4,52.7,191.7,52.7z"/>
	<path class="st0" d="M202.8,53.3v-4.8h1v10.8h-1V58c-0.5,1-1.5,1.5-2.8,1.5c-1.1,0-1.9-0.4-2.5-1.1c-0.6-0.7-0.9-1.6-0.9-2.7
		c0-1.1,0.3-2,0.9-2.7c0.6-0.7,1.5-1.1,2.5-1.1C201.4,51.8,202.3,52.3,202.8,53.3z M202.9,55.6c0-0.8-0.2-1.5-0.7-2.1
		c-0.5-0.6-1.1-0.8-1.9-0.8c-0.8,0-1.4,0.3-1.9,0.8c-0.5,0.6-0.7,1.2-0.7,2.1c0,0.8,0.2,1.5,0.7,2.1c0.5,0.6,1.1,0.8,1.9,0.8
		c0.8,0,1.4-0.3,1.9-0.8C202.6,57.2,202.9,56.5,202.9,55.6z"/>
	<path class="st0" d="M215.5,57l0.9,0.4c-0.3,0.6-0.7,1.1-1.2,1.5c-0.6,0.4-1.2,0.6-2,0.6c-1.1,0-2-0.4-2.6-1.1s-1-1.7-1-2.7
		c0-1.1,0.3-2,1-2.7c0.7-0.8,1.5-1.1,2.6-1.1s1.9,0.4,2.6,1.1c0.6,0.7,1,1.6,1,2.7l0,0.4h-6.1c0,0.8,0.3,1.4,0.8,1.9
		c0.5,0.5,1.1,0.7,1.8,0.7c0.5,0,1-0.1,1.4-0.4C215,57.9,215.3,57.5,215.5,57z M213.1,52.7c-0.7,0-1.3,0.2-1.7,0.7
		c-0.5,0.4-0.7,1-0.8,1.7h5c-0.1-0.7-0.3-1.3-0.8-1.7C214.4,52.9,213.9,52.7,213.1,52.7z"/>
	<path class="st0" d="M219,52v-1.2c0-0.8,0.2-1.3,0.6-1.7c0.4-0.4,0.9-0.6,1.6-0.6l0.5,0v0.9c-0.1,0-0.2,0-0.4,0
		c-0.4,0-0.7,0.1-0.9,0.3c-0.2,0.2-0.3,0.5-0.3,1V52h1.7v0.9H220v6.5h-1v-6.5h-1.4V52C217.5,52,219,52,219,52z"/>
	<path class="st0" d="M223.4,52v-1.2c0-0.8,0.2-1.3,0.6-1.7c0.4-0.4,0.9-0.6,1.6-0.6l0.5,0v0.9c-0.1,0-0.2,0-0.4,0
		c-0.4,0-0.7,0.1-0.9,0.3c-0.2,0.2-0.3,0.5-0.3,1V52h1.7v0.9h-1.7v6.5h-1v-6.5H222V52C222,52,223.4,52,223.4,52z"/>
	<path class="st0" d="M232.8,57l0.9,0.4c-0.3,0.6-0.7,1.1-1.2,1.5c-0.6,0.4-1.2,0.6-2,0.6c-1.1,0-2-0.4-2.6-1.1s-1-1.7-1-2.7
		c0-1.1,0.3-2,1-2.7c0.7-0.8,1.5-1.1,2.6-1.1s1.9,0.4,2.6,1.1c0.6,0.7,1,1.6,1,2.7l0,0.4h-6.1c0,0.8,0.3,1.4,0.8,1.9
		c0.5,0.5,1.1,0.7,1.8,0.7c0.5,0,1-0.1,1.4-0.4C232.3,57.9,232.6,57.5,232.8,57z M230.5,52.7c-0.7,0-1.3,0.2-1.7,0.7
		c-0.5,0.4-0.7,1-0.8,1.7h5c-0.1-0.7-0.3-1.3-0.8-1.7C231.7,52.9,231.2,52.7,230.5,52.7z"/>
	<path class="st0" d="M239,58.6c0.6,0,1.1-0.2,1.5-0.4c0.4-0.3,0.7-0.7,0.9-1.2l0.9,0.4c-0.2,0.6-0.6,1.2-1.2,1.6
		c-0.6,0.4-1.3,0.6-2.1,0.6c-1.1,0-1.9-0.4-2.6-1.1c-0.7-0.8-1-1.7-1-2.7s0.3-1.9,1-2.7c0.7-0.8,1.5-1.1,2.6-1.1
		c0.8,0,1.5,0.2,2.1,0.6c0.6,0.4,1,0.9,1.2,1.6l-0.9,0.4c-0.2-0.5-0.5-0.9-0.9-1.2c-0.4-0.3-0.9-0.5-1.5-0.5c-0.8,0-1.4,0.3-1.9,0.8
		c-0.5,0.5-0.7,1.2-0.7,2.1c0,0.8,0.2,1.5,0.7,2.1C237.6,58.3,238.2,58.6,239,58.6z"/>
	<path class="st0" d="M247.1,58.3v0.9c-0.2,0-0.4,0.1-0.8,0.1c-1.3,0-1.9-0.7-1.9-2v-4.5h-1.4V52h1.4v-2.1h1V52h1.7v0.9h-1.7v4.4
		c0,0.8,0.3,1.2,1,1.2L247.1,58.3z"/>
	<path class="st0" d="M248.2,57.2l1-0.2c0,0.5,0.2,0.9,0.6,1.1c0.3,0.3,0.8,0.4,1.4,0.4s1.1-0.1,1.4-0.3c0.3-0.2,0.5-0.5,0.5-0.9
		c0-0.3-0.1-0.5-0.3-0.7c-0.2-0.2-0.4-0.3-0.7-0.4c-0.3-0.1-0.6-0.1-0.9-0.2c-0.3-0.1-0.6-0.1-0.9-0.2c-0.3-0.1-0.6-0.2-0.9-0.3
		c-0.3-0.1-0.5-0.3-0.6-0.6c-0.2-0.3-0.3-0.6-0.3-1c0-0.6,0.2-1.1,0.7-1.5c0.5-0.4,1.1-0.6,2-0.6c0.8,0,1.5,0.2,1.9,0.6
		s0.7,0.9,0.8,1.4l-1,0.3c0-0.4-0.2-0.8-0.5-1c-0.3-0.3-0.7-0.4-1.3-0.4c-0.5,0-1,0.1-1.3,0.3c-0.3,0.2-0.4,0.5-0.4,0.9
		c0,0.3,0.1,0.6,0.3,0.7c0.2,0.2,0.5,0.3,0.8,0.4s0.7,0.2,1.1,0.3c0.4,0.1,0.8,0.2,1.1,0.3c0.3,0.1,0.6,0.3,0.8,0.6
		c0.2,0.3,0.3,0.7,0.3,1.2c0,0.6-0.3,1.1-0.8,1.5s-1.2,0.6-2.2,0.6c-0.9,0-1.7-0.2-2.1-0.6C248.5,58.4,248.2,57.9,248.2,57.2z"/>
</g>
</svg>
